<?xml version="1.0" standalone="no"?>
<!DOCTYPE svg PUBLIC "-//W3C//DTD SVG 20010904//EN"
 "http://www.w3.org/TR/2001/REC-SVG-20010904/DTD/svg10.dtd">
<svg version="1.0" xmlns="http://www.w3.org/2000/svg"
 width="625.000000pt" height="462.000000pt" viewBox="0 0 625.000000 462.000000"
 preserveAspectRatio="xMidYMid meet">

<g transform="translate(0.000000,462.000000) scale(0.100000,-0.100000)"
fill="#000000" stroke="none">
<path d="M3015 4194 c-11 -3 -69 -16 -130 -29 -292 -64 -802 -182 -1350 -310
-303 -71 -465 -109 -675 -156 -146 -33 -156 -37 -184 -68 -17 -18 -18 -31 -12
-106 3 -47 9 -219 12 -382 7 -326 10 -340 67 -369 17 -10 284 -102 592 -206
1173 -397 1601 -537 1677 -548 89 -15 167 -6 373 42 414 95 1724 537 1926 649
79 45 77 30 83 429 3 195 9 392 12 437 7 77 6 82 -18 106 -28 28 -75 43 -273
87 -107 24 -152 30 -192 25 -35 -4 -53 -3 -53 4 0 23 -55 43 -211 77 -118 26
-177 34 -210 30 -38 -5 -49 -3 -64 14 -10 11 -34 24 -54 30 -92 26 -290 61
-333 59 -33 -2 -53 2 -66 14 -25 23 -59 32 -218 62 -78 14 -146 22 -168 18
-29 -5 -42 -1 -60 16 -43 40 -390 95 -471 75z m270 -78 c66 -12 115 -25 109
-29 -6 -3 -519 -133 -1140 -288 -621 -155 -1148 -287 -1171 -293 -40 -10 -43
-13 -43 -43 0 -24 -5 -33 -16 -33 -20 0 -263 77 -283 89 -8 5 -16 25 -18 44
-4 44 -15 41 332 121 154 36 474 110 710 165 237 55 608 140 825 190 217 49
404 92 415 94 48 11 169 4 280 -17z m435 -91 c47 -9 98 -19 114 -23 22 -6 -42
-26 -300 -96 -181 -48 -365 -99 -409 -111 -44 -13 -231 -62 -415 -110 -596
-155 -1191 -314 -1208 -324 -10 -6 -17 -22 -17 -38 0 -37 -11 -35 -195 25
-144 47 -145 47 -145 77 0 27 5 32 53 48 50 16 1606 407 1902 477 74 18 196
48 270 66 149 38 194 39 350 9z m458 -101 c72 -15 131 -28 129 -30 -7 -8 -333
-104 -672 -199 -567 -159 -668 -187 -930 -260 -132 -37 -341 -96 -465 -132
-124 -36 -240 -70 -257 -75 -29 -8 -33 -13 -33 -45 0 -36 0 -36 -37 -29 -21 3
-102 26 -180 51 l-143 46 0 33 c0 40 3 42 185 90 117 31 403 108 970 261 414
111 1195 312 1240 318 35 4 23 6 193 -29z m462 -104 c78 -16 144 -31 147 -34
2 -2 -42 -18 -99 -36 -57 -17 -195 -60 -308 -95 -183 -57 -1073 -322 -1385
-412 -66 -19 -216 -64 -333 -99 -117 -35 -215 -64 -218 -64 -2 0 -4 -18 -4
-40 0 -39 0 -39 -32 -33 -18 3 -103 27 -188 53 l-155 47 -3 35 c-3 32 0 36 35
50 21 9 304 92 628 183 1249 354 1685 473 1731 474 22 1 105 -12 184 -29z
m517 -120 c199 -50 190 -47 172 -65 -13 -13 -112 -46 -454 -153 -88 -28 -239
-75 -335 -106 -185 -58 -338 -105 -770 -236 -146 -44 -344 -105 -440 -135
-215 -67 -290 -85 -357 -85 -29 0 -53 -4 -53 -10 0 -5 11 -10 24 -10 13 0 31
-3 40 -6 18 -7 22 -49 6 -59 -15 -10 -132 19 -267 66 -184 63 -173 57 -173 94
0 18 6 37 13 43 7 6 62 25 122 42 61 18 252 75 425 127 514 155 1195 357 1545
458 127 36 235 68 240 70 34 12 123 0 262 -35z m-4402 -251 c4 -5 19 -15 33
-22 l27 -11 -25 -3 -25 -4 3 -110 c4 -97 2 -109 -12 -103 -13 5 -16 24 -16
119 0 62 -3 120 -6 129 -7 18 11 22 21 5z m164 -49 c29 -10 56 -19 60 -18 3 1
22 -6 41 -14 49 -23 24 -22 -45 2 -54 19 -82 19 -70 0 3 -5 29 -16 58 -26 28
-9 55 -22 59 -28 4 -6 8 -53 8 -103 0 -79 -2 -93 -16 -93 -18 0 -118 27 -149
40 -11 4 -28 11 -38 14 -13 4 -17 15 -16 43 1 21 -1 67 -6 102 l-8 64 24 -6
c13 -4 34 -10 47 -13 35 -10 30 31 -5 44 -16 6 -21 11 -13 11 8 1 39 -8 69
-19z m267 -71 c165 -51 273 -79 310 -79 29 0 46 -6 55 -19 20 -27 301 -118
419 -135 24 -4 49 -11 55 -15 28 -23 361 -119 425 -123 26 -2 51 -10 60 -19
20 -23 379 -149 423 -149 15 0 17 -14 17 -160 0 -162 -2 -170 -38 -150 -54 31
-171 64 -146 41 9 -9 117 -53 162 -66 18 -5 22 -13 22 -46 0 -28 -4 -39 -12
-37 -38 10 -139 42 -178 55 -130 46 -702 239 -810 274 -69 22 -144 47 -166 55
l-41 15 8 46 c5 25 6 49 3 52 -3 3 -38 17 -77 31 l-72 25 -3 108 -3 109 29
-21 c33 -23 123 -46 153 -38 10 3 21 2 23 -2 2 -3 34 -15 70 -26 l66 -20 0
-107 c0 -60 -3 -108 -6 -108 -3 0 -37 10 -76 21 -51 16 -73 18 -81 10 -6 -6
-9 -13 -6 -15 12 -12 213 -82 344 -121 83 -24 224 -68 315 -99 214 -71 311
-99 318 -92 11 12 -17 29 -95 56 l-78 28 -3 117 c-2 92 0 116 10 113 74 -27
180 -59 185 -55 18 18 -104 61 -607 213 -173 53 -346 106 -385 119 -38 13
-137 44 -220 70 -375 117 -462 147 -462 161 0 10 6 13 16 9 9 -4 43 -15 77
-26z m-408 -213 c-5 -46 -23 -37 -26 13 -3 40 -2 43 13 31 10 -8 15 -25 13
-44z m135 -3 c38 -17 38 -17 15 -29 -16 -10 -18 -13 -7 -14 32 0 166 -70 136
-70 -19 0 -175 44 -211 60 -56 23 -62 45 -11 36 46 -9 45 7 -2 27 l-38 17 40
-5 c22 -3 57 -13 78 -22z m-139 -85 c3 -13 6 -51 6 -85 0 -51 -3 -61 -15 -57
-12 5 -15 24 -15 85 0 76 11 103 24 57z m61 2 c3 -5 15 -10 26 -10 11 0 18 -4
15 -8 -3 -5 4 -8 16 -8 22 1 25 -7 35 -84 7 -61 -10 -76 -64 -60 -28 9 -38 17
-40 33 0 12 -4 50 -8 85 -5 42 -4 62 3 62 6 0 14 -4 17 -10z m3748 -4 c4 -10
-6 -23 -27 -35 -43 -27 -46 -27 -46 8 0 20 6 31 18 34 34 9 50 7 55 -7z
m-3384 -17 c23 -8 29 -15 22 -22 -28 -28 -7 -31 63 -10 11 3 16 1 12 -5 -8
-13 4 -18 254 -96 81 -26 125 -46 150 -67 31 -28 32 -30 10 -23 -149 44 -264
82 -415 134 -99 34 -191 65 -204 68 -24 5 -24 5 5 18 37 16 63 17 103 3z
m2811 -192 c23 -9 22 -11 -31 -27 -81 -25 -117 -32 -100 -22 10 8 9 13 -8 24
-22 15 -21 16 16 31 38 15 74 13 123 -6z m-2357 -77 c3 -12 18 -19 48 -22 24
-3 53 -9 64 -14 18 -7 18 -6 6 9 -12 15 -11 17 7 17 32 0 35 -8 50 -113 l9
-59 -28 4 c-17 3 -26 0 -22 -6 4 -6 -1 -7 -13 -2 -16 7 -124 41 -161 52 -9 2
-13 29 -13 88 l0 86 24 -11 c13 -6 26 -19 29 -29z m2096 26 c-51 -26 -103 -66
-89 -67 13 0 -145 -59 -160 -59 -3 0 -4 15 -2 33 4 31 6 33 95 61 153 47 205
58 156 32z m-2592 -2 c-3 -3 -12 -4 -19 -1 -8 3 -5 6 6 6 11 1 17 -2 13 -5z
m73 -6 c0 -4 7 -8 15 -8 8 0 15 -4 15 -10 0 -13 -23 -13 -55 2 -15 7 -21 14
-15 18 15 9 40 8 40 -2z m76 -4 l29 -16 -30 7 c-16 3 -34 11 -39 16 -16 15 9
11 40 -7z m3664 2 c55 -13 51 -26 -9 -26 -41 0 -122 -30 -114 -42 3 -7 1 -8
-6 -4 -13 8 -157 -38 -180 -57 -8 -7 -46 -23 -85 -37 l-72 -26 -1 37 -2 37 77
26 c42 14 127 43 187 65 123 44 129 45 205 27z m-3666 -35 c4 -5 -3 -7 -14 -4
-23 6 -26 13 -6 13 8 0 17 -4 20 -9z m186 -25 c40 -12 45 -17 48 -45 l3 -32
-38 19 c-21 11 -56 25 -78 32 -54 17 -59 21 -44 31 20 12 57 11 109 -5z m1220
-281 c25 -4 75 -19 113 -33 l67 -26 2 -86 2 -85 3 83 c3 71 6 83 19 78 9 -3
20 -6 25 -6 5 0 9 -43 9 -96 0 -88 -2 -96 -17 -89 -10 4 -49 18 -88 32 -38 14
-77 35 -86 46 -10 12 -18 16 -20 8 -3 -8 -28 -3 -82 15 l-77 26 0 89 0 88 43
-18 c24 -10 63 -22 87 -26z m1279 16 c55 -18 53 -31 -4 -31 -40 0 -279 -80
-288 -96 -6 -11 -17 -14 -33 -10 -13 4 -24 2 -24 -3 0 -9 -57 -27 -74 -23 -4
2 -13 -1 -20 -6 -6 -5 -19 -12 -29 -15 -16 -6 -18 -2 -15 29 l3 36 199 64
c109 34 201 65 204 69 8 8 23 6 81 -14z"/>
<path d="M3048 4103 c7 -3 16 -2 19 1 4 3 -2 6 -13 5 -11 0 -14 -3 -6 -6z"/>
<path d="M3120 4100 c-25 -5 -56 -13 -70 -19 -20 -9 -15 -9 25 -3 28 4 87 6
133 4 86 -2 121 5 86 19 -24 10 -116 9 -174 -1z"/>
<path d="M863 3598 c-24 -5 -43 -13 -43 -18 0 -13 59 -30 65 -19 9 14 25 11
25 -5 0 -22 114 -30 170 -12 l45 15 -75 2 c-41 1 -88 4 -105 8 -28 6 -26 8 30
23 l60 16 -65 0 c-36 0 -84 -4 -107 -10z"/>
<path d="M3586 4004 c-33 -8 -61 -16 -62 -17 -2 -2 179 0 221 2 5 1 5 5 -1 11
-17 17 -97 20 -158 4z"/>
<path d="M1351 3469 c-87 -7 -134 -22 -100 -33 8 -2 23 -7 33 -10 11 -4 40 0
65 9 25 8 69 21 96 29 55 16 44 17 -94 5z"/>
<path d="M1352 3421 c-32 -20 119 -28 165 -8 27 11 22 12 -61 14 -50 2 -97 -1
-104 -6z"/>
<path d="M4023 3897 c-59 -17 -63 -26 -6 -15 26 5 86 6 133 3 78 -6 83 -5 66
9 -24 19 -129 20 -193 3z"/>
<path d="M1760 3328 c-70 -14 -77 -17 -60 -28 24 -16 90 -11 179 14 l84 22
-79 0 c-44 0 -99 -3 -124 -8z"/>
<path d="M1860 3281 c0 -11 77 -21 112 -14 52 10 37 18 -38 20 -41 1 -74 -1
-74 -6z"/>
<path d="M4552 3795 c-41 -7 -75 -15 -77 -17 -2 -2 41 -3 95 -3 64 1 104 5
112 13 9 9 7 12 -9 12 -12 0 -27 2 -35 4 -7 2 -46 -2 -86 -9z"/>
<path d="M2400 3203 c-8 -2 -21 -7 -29 -9 -8 -2 -12 -7 -9 -9 3 -3 22 1 44 9
35 13 30 21 -6 9z"/>
<path d="M2255 3195 c-5 -2 -27 -6 -47 -10 -81 -13 -33 -30 154 -55 55 -8 93
-8 103 -2 23 12 -54 25 -150 25 -66 0 -68 1 -40 13 17 7 38 13 48 14 9 0 17 5
17 10 0 9 -62 13 -85 5z"/>
<path d="M4932 3653 c-82 -19 -74 -27 13 -12 38 6 91 8 123 5 132 -16 153 -18
170 -11 13 6 8 11 -23 21 -54 17 -206 16 -283 -3z"/>
<path d="M2737 3046 c-71 -19 -79 -38 -15 -38 30 0 128 37 128 47 0 9 -65 4
-113 -9z"/>
<path d="M2812 3009 c-52 -11 -52 -22 0 -15 32 5 57 2 83 -9 45 -18 138 -19
180 -1 26 11 20 12 -60 12 -50 -1 -108 4 -130 10 -22 5 -55 7 -73 3z"/>
<path d="M1646 3082 c-3 -5 1 -18 9 -28 14 -18 14 -18 15 3 0 23 -15 39 -24
25z"/>
<path d="M1752 2930 c0 -19 2 -27 5 -17 2 9 2 25 0 35 -3 9 -5 1 -5 -18z"/>
<path d="M2715 2460 c28 -12 37 -12 30 0 -3 6 -16 10 -28 9 -21 0 -21 -1 -2
-9z"/>
<path d="M1661 2633 c-12 -13 -12 -16 0 -24 8 -5 21 -9 29 -9 10 0 11 3 4 8
-7 4 -13 14 -15 24 -4 14 -6 14 -18 1z"/>
<path d="M5705 3118 c22 -17 70 -62 107 -99 127 -130 166 -267 108 -383 -53
-105 -207 -213 -442 -310 -100 -41 -346 -118 -431 -136 -32 -6 -56 -14 -54
-17 11 -11 362 52 542 97 461 115 666 243 665 416 0 27 -9 68 -20 91 -49 108
-217 237 -440 339 l-75 34 40 -32z"/>
<path d="M5450 3101 c0 -15 14 -55 31 -89 36 -70 49 -170 30 -239 -18 -65 -93
-156 -179 -217 -161 -113 -327 -179 -661 -266 -82 -22 -34 -20 125 5 526 82
856 208 955 364 52 82 35 184 -48 280 -49 58 -222 191 -247 191 -3 0 -6 -13
-6 -29z"/>
<path d="M420 2984 c-129 -89 -186 -203 -150 -299 17 -44 109 -133 180 -174
224 -129 635 -238 1171 -310 186 -26 603 -68 739 -76 l105 -5 -200 55 c-110
30 -263 71 -340 91 -327 83 -812 219 -963 270 -258 86 -436 179 -496 257 -14
18 -30 53 -37 78 -11 42 -10 51 9 90 12 23 20 44 19 45 -1 1 -18 -9 -37 -22z"/>
<path d="M1749 1965 c-274 -52 -434 -227 -415 -454 15 -182 145 -318 361 -377
99 -26 292 -30 406 -6 213 44 343 150 385 312 60 235 -81 440 -353 511 -103
27 -282 33 -384 14z m269 -200 c63 -19 119 -66 143 -120 24 -53 24 -147 0
-201 -75 -164 -368 -180 -476 -26 -27 40 -30 51 -30 126 0 73 3 87 28 124 63
96 203 136 335 97z"/>
<path d="M328 1953 c-2 -5 -3 -21 -3 -38 1 -16 2 -56 3 -87 l2 -58 155 0 155
0 0 -325 0 -326 158 3 157 3 3 323 2 322 155 0 155 0 0 95 0 95 -469 0 c-259
0 -471 -3 -473 -7z"/>
<path d="M2615 1618 c-4 -189 -5 -377 -3 -418 l3 -75 151 -3 151 -3 6 68 c4
38 7 89 7 116 l0 47 88 0 87 0 95 -115 94 -115 168 0 c92 0 168 3 168 6 0 4
-35 45 -77 92 -43 47 -95 104 -116 128 l-38 43 57 28 c104 51 156 134 157 250
0 127 -83 218 -242 266 -59 18 -102 21 -407 25 l-342 4 -7 -344z m607 142 c20
-6 49 -25 63 -42 49 -58 17 -142 -64 -170 -40 -14 -274 -18 -288 -5 -4 5 -10
58 -11 118 l-4 109 134 0 c73 0 150 -5 170 -10z"/>
<path d="M3750 1541 l0 -422 153 3 152 3 3 113 3 112 92 -1 92 0 94 -115 94
-114 168 0 c93 0 169 3 169 8 -1 4 -52 63 -115 132 -82 88 -112 127 -103 133
7 4 36 21 65 37 186 105 177 367 -15 464 -112 57 -131 59 -504 64 l-348 4 0
-421z m620 216 c74 -26 100 -118 49 -173 -34 -37 -83 -47 -224 -48 l-130 -1
-3 118 -3 117 138 -1 c79 0 153 -5 173 -12z"/>
<path d="M4900 1540 l0 -420 460 0 460 0 0 100 0 100 -305 0 -305 0 0 70 0 70
255 0 255 0 0 90 0 90 -255 0 -255 0 0 65 0 65 295 0 295 0 0 95 0 95 -450 0
-450 0 0 -420z"/>
<path d="M4570 931 c-78 -28 -110 -67 -110 -134 1 -89 37 -117 193 -146 59
-11 112 -23 117 -26 17 -10 11 -44 -9 -55 -44 -23 -171 -1 -171 30 0 6 -31 10
-70 10 -66 0 -70 -1 -70 -22 0 -41 38 -88 88 -111 38 -17 66 -22 147 -22 119
0 179 19 225 71 25 29 30 43 30 84 0 87 -52 124 -215 151 -79 13 -117 32 -109
54 15 37 143 37 158 0 4 -11 23 -15 82 -15 l76 0 -6 26 c-20 78 -89 116 -216
121 -65 3 -98 -1 -140 -16z"/>
<path d="M1299 716 c-1 -124 -2 -232 -3 -238 -1 -9 23 -14 82 -16 l82 -3 0 59
0 59 94 6 c111 7 165 27 205 73 72 82 43 211 -57 257 -42 19 -68 22 -224 25
l-178 4 -1 -226z m316 89 c30 -29 32 -58 5 -85 -20 -20 -29 -22 -110 -22 l-45
-1 -3 67 -3 66 66 0 c57 0 69 -3 90 -25z"/>
<path d="M1929 753 c-50 -104 -102 -212 -115 -240 l-24 -53 84 0 83 0 18 40
18 40 111 0 111 0 17 -40 17 -40 80 0 c45 0 81 4 81 9 0 5 -50 113 -112 240
l-111 231 -84 0 -83 0 -91 -187z m178 -101 c-33 -2 -61 -1 -63 1 -3 2 10 35
28 72 l32 69 31 -70 31 -69 -59 -3z"/>
<path d="M2459 715 c-1 -124 -2 -231 -3 -237 -1 -10 48 -14 207 -16 l207 -2 0
54 0 55 -127 3 -128 3 -3 183 -2 182 -75 0 -75 0 -1 -225z"/>
<path d="M2930 700 l0 -240 210 0 210 0 0 55 0 55 -130 0 -130 0 0 185 0 185
-80 0 -80 0 0 -240z"/>
<path d="M3410 700 l0 -240 235 0 235 0 0 55 0 55 -155 0 -155 0 0 40 0 39
133 3 132 3 3 48 3 47 -120 0 c-65 0 -126 3 -135 6 -10 4 -16 18 -16 40 l0 34
150 0 150 0 0 55 0 55 -230 0 -230 0 0 -240z"/>
<path d="M3920 885 l0 -54 83 -3 82 -3 3 -182 2 -183 80 0 80 0 0 185 0 185
85 0 85 0 0 55 0 55 -250 0 -250 0 0 -55z"/>
<path d="M840 755 c-74 -7 -233 -20 -352 -31 -120 -10 -214 -21 -210 -25 4 -3
122 -16 262 -28 140 -12 318 -28 395 -36 77 -7 144 -11 148 -8 5 3 7 36 5 74
l-3 69 -55 -1 c-30 -1 -116 -7 -190 -14z"/>
<path d="M5120 703 c0 -38 2 -72 5 -74 2 -3 84 3 182 12 98 10 270 25 383 35
113 9 209 21 214 26 6 4 -7 8 -30 8 -21 0 -158 11 -304 24 -146 14 -307 28
-357 32 l-93 7 0 -70z"/>
<path d="M0 30 l0 -30 3125 0 3125 0 0 30 0 30 -3125 0 -3125 0 0 -30z"/>
</g>
</svg>
