<?xml version="1.0" standalone="no"?>
<!DOCTYPE svg PUBLIC "-//W3C//DTD SVG 20010904//EN"
 "http://www.w3.org/TR/2001/REC-SVG-20010904/DTD/svg10.dtd">
<svg version="1.0" xmlns="http://www.w3.org/2000/svg"
 width="456.000000pt" height="395.000000pt" viewBox="0 0 456.000000 395.000000"
 preserveAspectRatio="xMidYMid meet">

<g transform="translate(0.000000,395.000000) scale(0.100000,-0.100000)"
fill="#000000" stroke="none">
<path d="M667 3163 c-14 -13 17 -33 52 -33 42 0 108 -29 133 -56 13 -16 218
-416 218 -428 0 -2 48 -102 106 -222 59 -121 126 -259 149 -309 24 -49 82
-171 130 -270 48 -99 113 -234 145 -300 147 -307 202 -420 205 -423 2 -2 12 1
23 7 22 12 36 45 117 281 29 85 81 234 115 330 34 96 79 225 100 285 21 61 66
189 100 285 34 96 83 238 110 315 146 425 154 444 207 476 18 11 60 23 95 27
48 5 64 11 66 25 3 16 -13 17 -223 17 -210 0 -226 -1 -223 -17 2 -14 17 -19
60 -24 63 -7 103 -28 113 -58 8 -27 -10 -82 -185 -581 -34 -96 -79 -224 -100
-285 -22 -60 -66 -189 -100 -285 -34 -96 -75 -215 -92 -265 -17 -49 -34 -93
-37 -98 -7 -7 -43 64 -266 528 -139 287 -210 435 -327 675 -124 254 -141 295
-132 323 8 26 58 45 138 53 46 5 66 11 66 20 0 12 -66 14 -378 14 -208 0 -382
-3 -385 -7z"/>
<path d="M1907 3134 c-19 -20 -3 -32 52 -38 78 -9 106 -32 120 -97 6 -29 11
-166 11 -326 0 -152 2 -274 5 -271 3 3 15 32 26 64 21 59 138 392 165 472 8
23 12 47 9 52 -3 6 -37 10 -75 10 l-69 0 -3 68 -3 67 -116 3 c-63 1 -118 -1
-122 -4z"/>
<path d="M2880 3103 c0 -25 6 -31 59 -51 98 -38 173 -116 214 -220 38 -96 39
-327 1 -417 -67 -162 -224 -218 -592 -213 -151 3 -177 5 -174 18 2 11 0 12 -7
4 -6 -5 -38 -86 -70 -180 -32 -93 -95 -273 -140 -401 -44 -127 -81 -244 -81
-260 -1 -55 -21 -117 -50 -150 -57 -64 -61 -63 250 -63 266 0 280 1 280 19 0
15 -10 19 -56 24 -64 7 -100 27 -116 65 -8 19 -12 154 -12 452 l-1 425 278 7
c153 3 311 12 350 18 219 37 363 123 428 257 11 23 28 78 37 122 32 155 -14
319 -116 412 -30 28 -77 62 -105 76 -59 29 -213 68 -309 78 l-68 7 0 -29z"/>
<path d="M2218 835 c-20 -47 -32 -88 -27 -91 5 -3 13 6 19 20 8 21 16 26 45
26 29 0 37 -5 45 -25 5 -14 15 -25 21 -25 6 0 9 6 6 13 -3 6 -17 44 -32 82
-16 39 -31 74 -35 78 -4 4 -23 -31 -42 -78z m57 -2 c5 -20 3 -23 -19 -23 -30
0 -30 0 -14 35 12 27 22 24 33 -12z"/>
<path d="M2951 834 c-19 -46 -31 -87 -28 -90 3 -4 12 5 18 20 10 21 19 26 49
26 30 0 39 -5 49 -26 6 -15 14 -24 18 -21 6 7 -55 164 -66 171 -3 2 -22 -34
-40 -80z m56 6 c11 -29 10 -30 -17 -30 -27 0 -28 1 -17 30 6 17 14 30 17 30 3
0 11 -13 17 -30z"/>
<path d="M937 828 c20 -46 37 -85 39 -87 4 -4 56 109 68 147 15 46 -13 19 -34
-33 -12 -31 -26 -58 -30 -60 -5 -3 -19 22 -32 55 -12 33 -28 60 -35 60 -7 0 3
-33 24 -82z"/>
<path d="M1149 908 c0 -2 -1 -39 -1 -83 l-1 -80 51 -3 c32 -2 52 1 52 7 0 6
-17 11 -38 11 -46 0 -51 3 -44 35 4 22 10 25 44 25 23 0 37 4 33 10 -3 6 -24
10 -47 10 -32 0 -39 3 -34 16 3 9 6 22 6 29 0 9 15 15 43 18 40 3 40 4 -10 5
-29 1 -53 1 -54 0z"/>
<path d="M1350 831 c0 -44 5 -83 10 -86 6 -4 10 8 10 29 0 20 4 36 9 36 5 0
23 -17 39 -37 17 -21 33 -35 37 -31 4 4 -2 19 -14 34 l-21 27 20 19 c22 21 26
58 8 76 -7 7 -31 12 -55 12 l-43 0 0 -79z m83 48 c16 -26 1 -49 -33 -49 -28 0
-30 3 -30 36 0 32 2 35 26 32 15 -2 32 -10 37 -19z"/>
<path d="M1559 908 c0 -2 -1 -39 -2 -83 l-1 -80 44 1 c119 3 119 164 0 164
-22 0 -40 -1 -41 -2z m95 -40 c9 -12 16 -32 16 -44 0 -27 -46 -66 -74 -62 -17
3 -20 11 -21 58 -1 30 0 58 2 63 9 17 62 6 77 -15z"/>
<path d="M1790 825 l0 -85 50 0 c28 0 50 5 50 10 0 6 -18 10 -40 10 -38 0 -40
2 -40 30 0 28 2 30 41 30 24 0 38 4 34 10 -3 6 -22 10 -41 10 -31 0 -34 3 -34
29 0 28 3 30 43 34 40 3 40 4 -10 5 l-53 2 0 -85z"/>
<path d="M2000 835 c0 -41 0 -77 0 -80 0 -3 3 -6 8 -7 4 -2 8 12 10 30 3 26 8
32 26 32 46 0 74 44 50 79 -11 15 -26 21 -55 21 l-39 0 0 -75z m74 49 c22 -21
4 -54 -29 -54 -22 0 -25 4 -25 35 0 28 4 35 19 35 11 0 27 -7 35 -16z"/>
<path d="M2422 828 l3 -83 38 -3 c21 -2 37 1 37 7 0 6 -13 11 -30 11 l-30 0 0
75 c0 45 -4 75 -10 75 -7 0 -10 -30 -8 -82z"/>
<path d="M2730 824 c0 -54 4 -83 10 -79 6 3 10 19 10 36 0 24 4 29 23 29 31 0
67 27 67 50 0 30 -28 50 -71 50 l-39 0 0 -86z m76 62 c25 -19 8 -50 -30 -54
-24 -3 -26 0 -26 32 0 40 20 48 56 22z"/>
<path d="M3152 828 l3 -83 38 -3 c21 -2 37 1 37 7 0 6 -13 11 -30 11 l-30 0 0
75 c0 45 -4 75 -10 75 -7 0 -10 -30 -8 -82z"/>
<path d="M3322 828 c3 -83 3 -83 31 -86 16 -2 36 0 45 4 13 6 8 9 -18 13 l-35
6 -3 73 c-2 39 -7 72 -13 72 -6 0 -9 -32 -7 -82z"/>
<path d="M3500 835 c0 -41 0 -77 0 -80 0 -3 23 -7 50 -11 32 -3 50 -1 50 5 0
6 -17 11 -38 11 -46 0 -51 3 -44 35 4 22 10 25 44 25 23 0 37 4 33 10 -3 6
-23 10 -44 10 -36 0 -37 1 -33 29 4 27 8 30 46 34 38 3 37 4 -11 5 l-53 2 0
-75z"/>
<path d="M3708 903 c21 -4 22 -9 22 -84 0 -51 4 -78 10 -74 6 3 10 39 10 80 0
68 2 74 23 78 12 2 -3 4 -33 4 -30 0 -45 -2 -32 -4z"/>
</g>
</svg>
